<?xml version="1.0" standalone="no"?>
<!DOCTYPE svg PUBLIC "-//W3C//DTD SVG 20010904//EN"
 "http://www.w3.org/TR/2001/REC-SVG-20010904/DTD/svg10.dtd">
<svg version="1.0" xmlns="http://www.w3.org/2000/svg"
 width="725.000000pt" height="725.000000pt" viewBox="0 0 725.000000 725.000000"
 preserveAspectRatio="xMidYMid meet">
<metadata>
Created by potrace 1.11, written by Peter Selinger 2001-2013
</metadata>
<g transform="translate(0.000000,725.000000) scale(0.100000,-0.100000)"
fill="#000000" stroke="none">
<path d="M3360 6975 c-146 -28 -273 -56 -282 -61 -3 -2 -46 -11 -95 -19 -48
-9 -119 -25 -158 -36 -72 -21 -202 -82 -220 -103 -5 -6 -35 -28 -66 -48 -30
-20 -73 -52 -95 -72 -21 -20 -42 -36 -47 -36 -4 0 -12 -11 -17 -25 -5 -14 -14
-25 -20 -25 -17 0 -109 -152 -136 -227 -20 -55 -31 -73 -45 -73 -11 0 -19 -7
-19 -15 0 -8 -8 -15 -17 -15 -9 0 -67 -25 -129 -55 -84 -41 -122 -66 -152
-100 -33 -38 -45 -45 -76 -45 -54 0 -104 -24 -108 -52 -2 -15 -16 -29 -40 -41
-36 -18 -44 -34 -38 -76 1 -9 -5 -12 -19 -8 -13 3 -19 1 -14 -6 3 -5 6 -32 6
-59 -1 -34 4 -51 16 -58 13 -8 13 -11 3 -18 -11 -7 -9 -16 7 -43 12 -19 21
-43 21 -55 0 -11 7 -29 15 -40 20 -27 18 -44 -5 -44 -27 0 -25 -10 10 -50 33
-39 36 -56 15 -84 -29 -38 -16 -141 20 -171 19 -16 31 -85 24 -140 -6 -48 4
-122 22 -157 5 -10 9 -31 9 -47 0 -17 5 -33 11 -36 7 -5 5 -13 -5 -24 -14 -15
-13 -21 7 -60 21 -42 21 -43 2 -57 -17 -13 -18 -17 -5 -52 7 -20 30 -73 51
-117 26 -55 39 -101 44 -147 4 -38 9 -68 12 -68 3 0 12 8 19 18 10 13 15 14
25 5 8 -9 18 -9 31 -2 15 8 19 21 18 57 0 26 2 58 4 72 2 14 5 40 5 58 1 18 6
32 14 32 6 0 21 27 31 60 11 33 22 60 26 60 4 0 12 11 18 25 7 15 20 25 32 25
13 0 20 7 20 19 0 11 13 49 30 86 16 36 29 69 28 73 -1 4 5 21 14 37 16 30 31
187 37 371 1 32 6 43 25 54 13 7 27 21 29 32 3 11 15 22 26 25 11 3 27 16 37
30 14 22 21 24 56 19 23 -4 56 -2 74 4 23 8 39 8 52 1 13 -7 22 -7 29 0 7 7
13 2 17 -15 7 -27 20 -34 31 -16 4 6 15 8 25 5 13 -4 22 1 30 15 12 23 35 28
26 5 -9 -26 23 -30 48 -6 27 26 52 27 65 4 7 -12 10 -13 11 -4 0 8 6 11 16 7
10 -4 25 1 36 11 19 17 20 17 33 0 15 -21 29 -22 45 -2 7 8 24 15 39 15 15 0
32 5 38 11 7 7 13 7 17 0 4 -5 13 -8 21 -4 8 3 15 0 15 -6 0 -20 86 -4 135 24
41 25 48 26 76 14 17 -7 52 -12 78 -11 26 0 53 -3 61 -8 9 -5 27 -3 49 7 50
22 111 25 111 6 0 -11 -10 -14 -37 -11 -30 2 -38 -1 -41 -15 -3 -15 5 -17 66
-17 70 0 154 22 212 56 28 17 30 17 48 1 17 -15 29 -16 88 -9 38 5 83 10 99
10 17 0 65 0 108 2 68 1 83 -2 122 -24 24 -14 57 -26 74 -26 16 0 33 -5 36
-11 4 -6 19 -7 35 -4 21 5 31 1 42 -14 14 -19 19 -20 78 -9 48 8 65 8 68 -1 2
-6 19 -11 37 -11 55 0 138 -22 161 -42 30 -26 54 -26 113 2 44 20 55 22 77 11
19 -8 30 -9 38 -1 17 17 35 12 76 -21 40 -33 100 -137 100 -175 0 -12 7 -41
16 -65 8 -24 18 -84 21 -134 3 -54 11 -96 19 -106 8 -8 16 -31 20 -50 8 -47
25 -89 35 -89 5 0 9 -5 9 -12 0 -6 9 -21 19 -32 12 -12 30 -63 43 -121 25
-103 25 -103 2 -292 -4 -29 -3 -53 2 -53 4 0 36 14 71 32 54 27 63 35 63 59 0
15 6 29 13 32 20 8 50 151 54 262 4 97 8 150 13 160 1 3 3 13 4 23 1 9 5 22 9
29 4 6 5 18 2 25 -3 8 1 28 10 44 13 26 13 30 0 40 -17 13 -20 75 -4 91 5 5
14 41 20 78 8 57 7 72 -7 93 -17 26 -12 85 8 110 8 9 8 16 0 24 -11 11 1 63
19 83 12 13 11 52 -1 60 -7 4 -5 14 5 28 20 29 19 33 -10 32 -25 0 -45 23 -59
68 -3 10 -25 26 -50 36 -24 11 -47 24 -51 30 -8 14 42 75 64 77 9 1 21 2 28 3
7 1 10 7 7 14 -3 8 2 20 11 27 20 17 19 27 -5 35 -11 3 -20 12 -20 19 0 13
-53 56 -68 56 -9 0 -122 49 -131 57 -3 2 0 8 6 14 8 8 24 5 58 -10 26 -12 54
-21 61 -21 20 0 17 18 -6 32 -21 14 -27 38 -9 38 7 0 8 11 4 30 -4 19 -2 36 5
45 6 8 9 19 5 24 -3 7 0 8 9 5 31 -12 15 5 -57 60 -41 30 -81 65 -89 78 -9 13
-43 54 -77 92 -33 38 -61 73 -61 78 0 16 -91 121 -147 171 -69 60 -141 105
-223 141 -36 15 -87 41 -113 57 -127 78 -370 147 -546 156 -90 5 -115 3 -122
-8 -7 -12 -11 -12 -18 -1 -6 10 -29 13 -77 12 -38 -1 -96 1 -129 4 -173 16
-329 13 -445 -9z m410 -4 c39 -11 -141 -70 -233 -76 -39 -3 -92 -10 -117 -16
-25 -6 -70 -16 -100 -24 -30 -7 -73 -16 -95 -20 -22 -3 -48 -8 -57 -11 -10 -3
-18 -2 -18 3 0 17 56 41 135 58 44 9 115 28 159 42 43 14 122 31 175 38 111
15 118 15 151 6z m-1110 -215 c0 -2 -7 -7 -16 -10 -8 -3 -12 -2 -9 4 6 10 25
14 25 6z m-80 -129 c0 -2 -23 -23 -51 -47 -34 -28 -47 -36 -40 -22 12 23 91
82 91 69z m2415 -25 c-3 -3 -11 0 -18 7 -9 10 -8 11 6 5 10 -3 15 -9 12 -12z
m-2495 5 c0 -2 -12 -14 -27 -28 l-28 -24 24 28 c23 25 31 32 31 24z m345 -5
c-45 -39 -97 -73 -89 -59 11 19 73 66 89 67 5 0 5 -3 0 -8z m225 -39 c-60 -54
-73 -62 -64 -38 5 13 100 85 112 85 2 0 -19 -21 -48 -47z m90 16 c-19 -12 -48
-32 -63 -45 -32 -27 -57 -33 -37 -9 19 23 102 75 119 75 9 0 0 -10 -19 -21z
m37 -39 c-14 -11 -29 -20 -33 -20 -4 0 1 9 11 20 10 11 25 20 33 20 9 0 6 -7
-11 -20z m-681 -66 c-3 -9 -6 -18 -6 -20 0 -2 -7 -4 -15 -4 -18 0 -19 12 -3
28 17 17 31 15 24 -4z m1089 -24 c-27 -12 -43 -12 -25 0 8 5 22 9 30 9 10 0 8
-3 -5 -9z m101 -9 c-3 -4 -18 -11 -33 -14 -16 -3 -37 -9 -48 -13 -16 -5 -18
-4 -8 6 6 7 26 16 45 20 46 11 50 11 44 1z m114 -88 c-8 -3 -27 -12 -42 -20
-16 -7 -28 -11 -28 -9 0 9 54 35 70 35 13 -1 13 -1 0 -6z m205 -118 c-60 -24
-111 -42 -113 -41 -13 13 155 85 198 85 14 0 -24 -19 -85 -44z m87 -20 c-35
-8 -70 -19 -78 -26 -8 -7 -17 -10 -19 -7 -16 16 66 46 125 46 26 0 19 -3 -28
-13z m5 -41 c-16 -9 -31 -13 -34 -10 -3 3 5 10 18 15 37 15 47 12 16 -5z m773
-219 c-58 -36 -70 -41 -70 -26 0 10 97 61 114 61 6 0 -14 -16 -44 -35z m-16
-50 c-10 -8 -23 -14 -29 -14 -5 0 -1 6 9 14 11 8 24 15 30 15 5 0 1 -7 -10
-15z m-3157 -62 c12 -26 20 -50 17 -52 -10 -10 -64 54 -64 76 0 38 24 26 47
-24z m3793 -33 c0 -5 -4 -10 -9 -10 -6 0 -13 5 -16 10 -3 6 1 10 9 10 9 0 16
-4 16 -10z m-50 -39 c0 -5 -7 -12 -16 -15 -24 -9 -28 -7 -14 9 14 17 30 20 30
6z m-3755 -51 c21 -22 37 -40 34 -40 -3 0 -23 18 -44 40 -21 22 -37 40 -34 40
3 0 23 -18 44 -40z m66 -57 c13 -16 12 -17 -3 -4 -10 7 -18 15 -18 17 0 8 8 3
21 -13z m-66 -63 c39 -26 25 -26 -17 0 -18 11 -28 20 -23 20 6 0 24 -9 40 -20z
m3765 -64 c0 -6 -93 -37 -97 -32 -2 2 15 11 39 19 47 17 58 19 58 13z m-3553
-1158 c-3 -7 -5 -2 -5 12 0 14 2 19 5 13 2 -7 2 -19 0 -25z"/>
<path d="M4645 4718 c-44 -4 -114 -14 -155 -22 -257 -50 -337 -68 -352 -76
-10 -6 -27 -10 -38 -10 -13 0 -20 -7 -20 -20 0 -33 1 -35 16 -32 8 2 14 -2 14
-8 0 -6 4 -9 9 -5 5 3 12 1 15 -4 7 -10 32 -9 186 9 149 17 270 23 472 24 171
1 188 3 188 18 0 18 -33 42 -44 31 -3 -3 -6 -2 -6 4 0 14 -114 86 -123 77 -2
-2 -21 2 -43 9 -28 9 -62 11 -119 5z"/>
<path d="M2525 4703 c-22 -4 -32 -8 -125 -53 -91 -43 -143 -73 -147 -85 -2 -6
69 -11 195 -13 108 -1 292 -7 408 -14 195 -10 212 -10 237 7 22 14 25 21 16
36 -10 20 -7 23 26 19 15 -1 17 1 9 10 -6 6 -42 16 -80 21 -38 6 -114 19 -169
29 -55 11 -145 25 -200 30 -55 6 -111 12 -125 14 -14 2 -34 1 -45 -1z"/>
<path d="M2695 4273 c-11 -3 -38 -13 -60 -23 -22 -10 -56 -25 -75 -33 -19 -8
-55 -33 -80 -57 l-45 -42 40 29 c47 35 153 88 161 81 3 -3 -4 -28 -14 -56 -18
-46 -18 -54 -5 -79 8 -15 23 -37 34 -49 10 -11 19 -26 19 -32 0 -6 12 -15 28
-18 15 -4 36 -12 47 -17 11 -6 53 -12 92 -14 60 -2 75 1 85 16 7 10 25 21 40
25 31 7 42 24 52 79 4 23 3 37 -4 37 -5 0 -10 -5 -10 -11 0 -15 -87 0 -132 23
-41 20 -51 53 -20 61 46 13 111 17 117 7 3 -6 11 -8 16 -4 6 3 2 12 -10 21
-12 8 -21 20 -21 28 0 8 -17 19 -37 24 -38 11 -180 13 -218 4z"/>
<path d="M4336 4269 c-49 -12 -63 -23 -84 -68 -29 -65 -30 -74 -6 -123 24 -48
69 -88 101 -88 10 -1 29 -7 42 -14 24 -13 98 -6 152 15 31 12 89 72 89 92 0
16 -77 29 -86 15 -9 -14 -22 -9 -27 11 -3 12 -17 21 -40 25 -31 6 -47 21 -47
46 0 9 60 24 75 19 23 -7 95 -6 95 1 0 5 -5 10 -12 12 -6 2 -8 9 -5 16 6 8 18
7 46 -3 55 -19 122 -54 152 -79 14 -11 7 -3 -15 18 -23 21 -61 48 -86 58 -25
11 -61 27 -80 36 -41 19 -205 26 -264 11z"/>
<path d="M4198 4233 c-10 -2 -18 -9 -18 -14 0 -6 8 -5 20 1 11 6 20 13 20 15
0 3 -1 4 -2 4 -2 -1 -11 -3 -20 -6z"/>
<path d="M3894 2176 c-7 -18 49 -158 80 -199 44 -58 54 -327 14 -402 -8 -16
-23 -75 -32 -130 -9 -55 -25 -127 -35 -160 -10 -33 -22 -89 -26 -125 -4 -36
-20 -107 -36 -159 -29 -92 -29 -101 -37 -405 -7 -318 -6 -534 3 -573 l5 -23
746 0 746 0 -7 42 c-3 24 -10 57 -15 73 -5 17 -11 57 -15 90 -22 201 -172 735
-297 1060 -87 227 -115 270 -255 398 -29 26 -71 72 -94 102 -57 76 -104 111
-264 200 -77 42 -151 85 -165 95 -46 32 -164 87 -234 109 -81 25 -75 24 -82 7z"/>
<path d="M3285 2151 c-27 -10 -68 -28 -90 -41 -164 -91 -229 -131 -290 -176
-38 -28 -121 -82 -184 -120 -104 -62 -181 -123 -181 -142 0 -4 -25 -37 -55
-72 -58 -70 -110 -167 -173 -325 -22 -55 -53 -122 -69 -150 -34 -59 -74 -168
-103 -280 -11 -44 -40 -156 -65 -250 -24 -93 -50 -190 -56 -215 -6 -25 -19
-67 -30 -95 -10 -27 -21 -63 -25 -80 -3 -16 -17 -68 -30 -114 -13 -46 -24 -85
-24 -87 0 -2 372 -4 826 -4 l826 0 -2 112 c-1 62 1 192 5 288 9 210 -3 338
-46 471 -20 63 -35 140 -44 234 -14 131 -37 237 -55 260 -4 6 -20 51 -35 100
-15 50 -39 128 -53 175 -24 76 -27 99 -25 220 1 115 6 147 27 214 24 72 26 97
8 95 -4 0 -29 -9 -57 -18z"/>
</g>
</svg>
