<?xml version="1.0" standalone="no"?>
<!DOCTYPE svg PUBLIC "-//W3C//DTD SVG 20010904//EN"
 "http://www.w3.org/TR/2001/REC-SVG-20010904/DTD/svg10.dtd">
<svg version="1.0" xmlns="http://www.w3.org/2000/svg"
 width="960.000000pt" height="960.000000pt" viewBox="0 0 960.000000 960.000000"
 preserveAspectRatio="xMidYMid meet">
<metadata>
Created by potrace 1.11, written by Peter Selinger 2001-2013
</metadata>
<g transform="translate(0.000000,960.000000) scale(0.100000,-0.100000)"
fill="#000000" stroke="none">
<path d="M4412 9205 c-16 -14 -34 -25 -38 -25 -5 0 -27 -14 -48 -30 -45 -34
-60 -31 -26 5 41 43 11 41 -33 -3 -24 -23 -48 -42 -54 -42 -6 0 -16 -7 -23
-15 -7 -8 -23 -15 -37 -15 -26 0 -98 -33 -108 -50 -3 -5 -11 -10 -17 -10 -6 0
-4 8 5 18 10 10 17 23 17 28 0 5 23 32 50 59 95 94 52 77 -109 -43 -79 -58
-92 -57 -31 3 36 35 54 72 31 63 -4 -1 -53 -45 -108 -97 -92 -86 -161 -129
-185 -115 -4 3 -23 -6 -41 -20 -38 -29 -68 -36 -42 -10 9 9 13 19 10 22 -6 7
-99 -57 -145 -101 -53 -50 -101 -82 -149 -101 -23 -9 -59 -28 -79 -41 -44 -30
-56 -31 -49 -5 4 16 -2 14 -34 -12 -21 -17 -39 -37 -39 -44 0 -15 -92 -154
-102 -154 -20 0 -4 43 32 91 22 30 40 57 40 61 0 4 -14 1 -31 -6 -29 -12 -99
-97 -99 -121 0 -6 -16 -28 -35 -48 -19 -20 -36 -44 -36 -52 -2 -19 -2 -20 -19
-73 -7 -23 -19 -47 -27 -53 -7 -6 -13 -16 -13 -22 0 -6 -7 -18 -16 -28 -9 -10
-18 -33 -19 -51 -2 -18 -4 -35 -5 -38 -1 -3 -1 -15 -1 -27 1 -11 -3 -24 -8
-28 -6 -3 -11 -17 -11 -30 0 -26 -48 -59 -72 -50 -7 3 -33 -15 -58 -40 -24
-25 -50 -45 -57 -45 -7 0 -13 -7 -13 -16 0 -12 -7 -15 -24 -12 -19 4 -26 0
-30 -16 -3 -12 -20 -28 -38 -36 -21 -9 -34 -24 -36 -38 -2 -12 0 -22 5 -21 22
4 22 -4 2 -33 -14 -19 -22 -44 -21 -63 1 -17 -9 -54 -22 -82 -14 -28 -28 -64
-32 -80 -4 -15 -9 -32 -13 -38 -3 -5 -6 -12 -7 -15 -11 -37 -18 -50 -25 -50
-5 0 -9 -6 -9 -13 0 -8 -11 -36 -25 -63 -14 -27 -25 -52 -25 -56 0 -19 27 -5
57 29 39 43 39 43 12 -67 -11 -47 -17 -95 -14 -108 3 -12 0 -32 -6 -43 -13
-26 -3 -89 15 -89 7 0 18 15 24 33 10 28 11 24 7 -35 -2 -38 -1 -68 4 -68 5 0
7 -53 5 -117 -2 -65 -4 -118 -4 -118 -6 0 -11 -210 -6 -229 3 -13 15 -26 26
-29 23 -6 27 -27 5 -27 -9 0 -12 -6 -9 -15 4 -8 14 -15 24 -15 20 0 30 -19 30
-59 0 -15 5 -32 12 -39 7 -7 10 -38 9 -77 -1 -43 3 -72 11 -83 7 -8 13 -40 13
-71 0 -48 3 -56 18 -54 15 1 17 -3 12 -20 -17 -52 -16 -86 5 -142 11 -33 30
-102 40 -154 11 -52 26 -101 33 -110 8 -9 17 -33 21 -53 4 -22 15 -42 26 -48
17 -9 19 -20 17 -81 -1 -61 -5 -74 -24 -89 -30 -23 -29 -30 5 -30 19 0 33 9
49 33 29 43 67 132 72 167 0 6 7 10 15 10 25 0 52 87 67 215 11 100 32 232 41
255 36 93 45 140 42 210 -2 41 -6 80 -8 87 -3 7 6 37 19 66 14 30 27 76 30
102 5 59 22 104 48 129 18 17 20 18 29 3 5 -10 16 -17 25 -17 12 0 14 7 9 34
-6 32 -5 33 20 28 24 -4 26 -2 20 14 -4 10 -10 33 -13 49 -3 17 -17 51 -29 77
-32 63 -30 91 10 169 21 43 30 72 25 82 -5 9 5 46 27 101 20 48 33 94 30 101
-8 22 63 163 93 184 14 10 41 20 59 23 26 4 32 1 32 -14 0 -18 24 -25 34 -9 6
10 68 20 158 27 56 4 64 2 162 -51 57 -30 106 -55 110 -55 15 0 3 22 -31 54
l-38 35 95 -30 c52 -17 115 -37 140 -44 25 -6 59 -19 77 -28 18 -10 41 -17 53
-17 23 0 27 25 5 34 -21 8 -19 33 4 45 10 6 20 9 22 7 2 -3 46 -7 98 -10 52
-4 98 -9 103 -12 19 -12 253 -3 326 12 84 18 136 15 272 -12 47 -10 114 -18
150 -19 64 -1 184 -32 225 -59 22 -15 75 -10 75 5 0 5 -12 15 -27 22 -16 6
-32 17 -36 25 -5 7 -27 24 -49 38 -22 14 -36 29 -32 34 30 28 333 11 400 -22
16 -9 35 -13 41 -11 7 3 27 -5 44 -18 30 -21 109 -36 109 -20 0 10 -34 41 -44
41 -10 0 -49 48 -58 72 -6 14 -2 18 17 18 13 0 36 -5 50 -12 19 -9 28 -9 37 0
21 21 168 11 168 -11 0 -6 -8 -19 -17 -29 -16 -18 -15 -19 28 -13 24 3 57 8
72 10 39 6 112 -62 102 -95 -5 -16 -1 -26 14 -36 12 -9 21 -24 21 -35 0 -10 8
-27 18 -37 35 -35 99 -118 120 -154 11 -21 35 -83 52 -140 29 -90 31 -110 25
-175 -6 -65 -4 -76 14 -99 16 -20 21 -41 21 -85 0 -32 5 -61 10 -64 6 -3 10
-15 10 -27 0 -12 8 -22 21 -25 11 -3 18 -11 15 -19 -3 -7 4 -24 15 -37 13 -17
19 -41 19 -75 0 -57 22 -153 50 -215 12 -25 17 -53 13 -72 -7 -42 -32 -117
-43 -130 -5 -6 -12 -37 -16 -68 -5 -45 -4 -57 7 -58 8 0 32 -1 54 -2 37 -2 41
-5 53 -42 9 -25 12 -63 9 -99 -7 -73 4 -102 37 -108 20 -4 26 -1 27 13 2 31 3
33 38 87 18 29 44 78 57 110 17 42 25 52 30 39 6 -17 7 -17 20 0 7 10 14 31
14 46 0 20 6 30 20 34 11 3 22 15 25 27 16 78 24 136 23 166 -1 41 8 83 26
125 7 17 19 95 26 175 7 80 19 153 25 163 11 15 10 24 -1 45 -10 19 -12 47 -9
92 13 154 16 170 32 170 12 0 14 7 9 28 -18 76 -19 115 -3 124 15 8 14 12 -3
44 l-20 35 25 9 c36 14 33 53 -6 81 -25 17 -30 27 -26 48 5 29 -6 158 -23 266
-7 48 -18 77 -34 95 -13 14 -26 34 -29 45 -2 11 -8 27 -12 37 -5 12 1 18 24
23 17 4 31 10 31 15 0 5 18 7 40 6 22 -2 40 -1 40 1 0 3 -34 41 -75 86 -41 45
-75 90 -75 99 0 11 -8 18 -20 18 -14 0 -20 6 -18 18 2 9 -3 16 -9 14 -13 -2
-17 10 -13 37 1 12 -1 13 -13 2 -13 -10 -17 -9 -26 8 -6 11 -8 26 -5 35 3 9
-3 20 -15 28 -12 7 -21 19 -21 26 0 7 -16 22 -35 33 -19 12 -35 27 -35 33 0
18 -53 85 -66 86 -7 0 -27 24 -44 53 -68 109 -83 127 -109 134 -14 3 -40 20
-56 37 -30 31 -170 158 -212 193 -12 10 -31 26 -43 36 -12 10 -44 34 -71 54
-50 35 -58 48 -37 55 17 6 0 28 -23 28 -29 0 -23 20 10 31 16 6 32 17 35 24 4
11 -8 13 -59 10 -35 -3 -67 0 -70 5 -3 5 -12 7 -20 4 -8 -3 -39 8 -69 25 -33
20 -76 34 -108 38 -29 3 -57 9 -63 13 -5 4 -37 11 -70 14 -61 7 -133 25 -215
54 -51 18 -39 28 15 13 26 -7 44 -6 61 1 66 30 0 55 -171 63 -89 4 -138 11
-189 29 l-69 23 39 13 c72 23 86 56 17 38 -21 -5 -58 -14 -83 -19 -54 -12
-382 -10 -425 2 -16 4 -68 13 -114 19 -74 9 -87 8 -103 -7 -28 -25 -31 -11 -8
42 11 26 19 50 17 52 -3 2 -18 -8 -35 -22z m2510 -1462 c10 -9 18 -23 18 -31
0 -12 -6 -10 -25 8 -38 35 -31 58 7 23z m-4279 -455 c-3 -16 -9 -28 -14 -28
-11 0 -12 53 -2 63 12 13 22 -8 16 -35z m44 -40 c-3 -7 -5 -2 -5 12 0 14 2 19
5 13 2 -7 2 -19 0 -25z m-3 -33 c-4 -8 -8 -15 -10 -15 -2 0 -4 7 -4 15 0 8 4
15 10 15 5 0 7 -7 4 -15z"/>
<path d="M5963 6293 c5 -7 -5 -18 -28 -29 -34 -16 -50 -32 -21 -21 10 4 13 1
10 -8 -3 -8 -10 -13 -16 -12 -6 1 -12 -6 -13 -16 -3 -16 -1 -15 21 2 14 11 34
18 44 16 15 -3 20 2 20 16 0 12 5 19 11 17 6 -2 10 -7 10 -11 -1 -4 -1 -13 -1
-21 0 -9 -7 -13 -20 -11 -13 2 -20 -2 -20 -11 0 -10 10 -14 33 -13 17 1 39 0
47 -2 8 -2 14 2 13 9 -2 6 6 12 18 12 16 0 19 -4 15 -17 -4 -10 -4 -14 0 -10
4 4 14 1 22 -6 10 -7 13 -8 9 -1 -4 7 3 23 14 38 14 17 16 24 6 20 -8 -3 -18
-1 -22 5 -3 6 -17 11 -31 11 -14 0 -27 7 -30 15 -6 14 -8 13 -20 -2 -11 -14
-14 -14 -12 -3 2 8 -4 15 -13 15 -9 0 -25 7 -35 15 -10 8 -15 10 -11 3z"/>
<path d="M3470 6241 c-39 -9 -73 -38 -67 -55 10 -25 -5 -19 -29 11 l-21 27
-32 -34 c-40 -44 -39 -54 3 -46 21 4 37 2 41 -4 5 -8 13 -6 27 6 15 15 23 16
38 6 13 -8 21 -8 26 -1 3 6 17 8 29 5 28 -7 38 12 18 35 -13 15 -10 16 29 9
44 -8 58 -6 58 11 0 5 -11 7 -25 5 -16 -3 -29 1 -37 12 -15 19 -23 21 -58 13z
m-110 -72 c0 -5 -9 -9 -19 -9 -14 0 -18 5 -14 20 4 16 8 18 19 9 8 -6 14 -15
14 -20z"/>
<path d="M6161 6238 c-1 -10 -1 -21 -1 -25 0 -14 39 -11 44 3 3 9 -2 14 -13
14 -11 0 -22 6 -24 13 -3 7 -6 5 -6 -5z"/>
<path d="M3611 6224 c7 -9 7 -19 -1 -33 -13 -26 0 -27 21 -3 29 34 29 40 -1
44 -23 3 -27 2 -19 -8z"/>
<path d="M6240 6219 c0 -5 5 -7 10 -4 6 3 10 8 10 11 0 2 -4 4 -10 4 -5 0 -10
-5 -10 -11z"/>
<path d="M6191 6183 l-22 -18 35 0 c30 -1 33 2 23 15 -6 8 -12 16 -13 18 -1 1
-11 -5 -23 -15z"/>
<path d="M6263 6188 c0 -7 -4 -21 -8 -30 -4 -10 -3 -18 3 -18 13 0 24 42 13
53 -4 4 -8 2 -8 -5z"/>
<path d="M3237 6146 c-4 -10 -1 -13 9 -9 7 3 14 9 14 14 0 14 -17 10 -23 -5z"/>
<path d="M5643 5755 c-13 -9 -31 -15 -40 -13 -12 2 -18 -3 -17 -15 2 -13 -1
-15 -10 -7 -14 11 -107 -10 -157 -36 -52 -27 -25 -26 36 1 63 27 77 26 56 -7
-7 -11 -8 -17 -2 -13 6 3 11 1 11 -4 0 -6 -3 -11 -7 -11 -5 0 -18 -15 -31 -33
-22 -33 -22 -34 -5 -88 19 -58 85 -134 108 -125 8 3 17 1 20 -4 4 -6 15 -10
26 -10 10 0 19 -5 19 -11 0 -5 5 -7 11 -3 8 4 7 9 -2 15 -7 4 -11 10 -8 14 3
3 17 -5 30 -18 18 -18 30 -22 49 -17 21 6 23 8 8 15 -10 4 -18 11 -18 16 0 5
9 4 20 -3 13 -8 19 -20 16 -32 -4 -15 0 -17 27 -13 106 17 207 63 207 95 0 10
10 22 23 27 16 7 22 18 22 40 l0 30 -62 0 c-42 1 -64 -3 -67 -12 -8 -20 -37
-3 -31 17 5 15 -3 19 -49 24 -43 6 -58 13 -71 32 -20 31 -6 54 34 54 15 0 32
5 39 12 9 9 17 9 34 0 24 -13 138 -12 138 0 0 4 -11 10 -25 14 -28 7 -34 34
-7 34 27 0 91 -20 148 -46 29 -13 63 -29 76 -34 37 -17 66 -35 88 -55 11 -10
22 -16 25 -13 9 8 -79 76 -134 104 -28 14 -91 39 -139 56 -78 28 -102 32 -227
35 -117 4 -144 2 -162 -12z m191 -26 c-10 -4 -28 -8 -38 -8 -19 -1 -19 -1 -1
13 10 7 28 11 39 8 19 -5 20 -6 0 -13z m46 -9 c0 -5 -7 -10 -16 -10 -8 0 -12
5 -9 10 3 6 10 10 16 10 5 0 9 -4 9 -10z m-320 -30 c0 -5 -4 -10 -9 -10 -6 0
-13 5 -16 10 -3 6 1 10 9 10 9 0 16 -4 16 -10z m126 -197 c20 -27 17 -43 -9
-43 -13 0 -28 -5 -33 -10 -7 -7 -18 -2 -34 15 -21 22 -22 28 -10 36 8 5 25 7
38 4 12 -3 22 -1 22 5 0 15 11 12 26 -7z"/>
<path d="M3610 5710 c-47 -5 -105 -13 -129 -19 -79 -21 -244 -107 -296 -155
-60 -55 -54 -60 12 -10 67 51 243 133 243 114 0 -6 -4 -10 -8 -10 -5 0 -15
-19 -22 -42 -7 -24 -17 -47 -22 -52 -26 -31 26 -134 77 -151 l20 -6 -20 -9
c-19 -8 -19 -9 4 -9 16 -1 21 -5 17 -16 -4 -11 2 -15 25 -15 17 0 37 -7 45
-15 9 -8 19 -15 24 -15 5 0 7 7 4 15 -4 8 -1 15 5 15 6 0 11 -5 11 -11 0 -6 7
-8 16 -5 8 3 12 2 9 -4 -3 -6 1 -10 9 -10 8 0 18 5 21 10 5 8 11 8 20 0 14
-12 58 -4 180 33 85 26 95 33 95 63 0 13 5 34 11 47 8 17 8 31 1 43 -9 16 -10
15 -17 -5 -6 -20 -12 -22 -38 -17 -18 4 -45 8 -62 10 -48 5 -108 26 -134 47
-20 17 -22 23 -13 43 9 21 22 25 98 36 65 9 89 10 92 1 4 -13 32 -15 32 -3 0
5 -11 14 -24 21 -13 7 -30 24 -37 37 -7 13 -21 24 -31 24 -11 0 -27 4 -36 9
-29 15 -93 19 -182 11z m177 -46 c-3 -3 -12 -4 -19 -1 -8 3 -5 6 6 6 11 1 17
-2 13 -5z m-142 -235 c4 -11 5 -21 3 -22 -1 -1 -13 -8 -26 -15 -24 -13 -62 -8
-62 9 0 5 -7 9 -15 9 -8 0 -15 5 -15 10 0 6 9 10 19 10 11 0 23 -4 26 -10 3
-5 15 -10 26 -10 11 0 17 5 14 10 -3 6 -1 10 5 10 6 0 8 5 5 10 -3 6 -2 10 4
10 5 0 13 -9 16 -21z m-85 -61 c0 -6 -6 -5 -15 2 -8 7 -15 14 -15 16 0 2 7 1
15 -2 8 -4 15 -11 15 -16z"/>
<path d="M3960 5659 c25 -12 53 -25 62 -30 26 -13 32 -11 18 6 -7 8 -30 20
-52 25 -21 6 -47 13 -56 16 -9 3 3 -5 28 -17z"/>
<path d="M4240 3800 c0 -5 5 -10 11 -10 5 0 7 5 4 10 -3 6 -8 10 -11 10 -2 0
-4 -4 -4 -10z"/>
<path d="M5184 2776 c-19 -15 -18 -16 11 -73 16 -32 54 -89 83 -128 29 -38 55
-80 59 -93 3 -13 0 -72 -7 -130 -6 -59 -15 -146 -20 -193 -6 -59 -16 -101 -33
-135 -14 -27 -28 -69 -32 -94 -8 -52 -45 -162 -79 -235 -48 -101 -56 -124 -56
-162 0 -21 -5 -44 -12 -51 -6 -6 -12 -52 -14 -110 -1 -60 -10 -129 -22 -173
-15 -56 -22 -122 -27 -264 -3 -104 -7 -230 -9 -280 -2 -49 -7 -217 -11 -372
l-8 -283 1046 0 1047 0 -6 28 c-2 15 -8 54 -13 87 -14 98 -51 315 -67 385 -18
84 -18 101 1 76 17 -23 18 -16 5 39 -5 22 -15 69 -20 105 -26 155 -118 503
-220 825 -18 55 -36 118 -41 140 -5 22 -11 50 -14 63 -3 12 -12 22 -19 22 -13
0 -82 102 -121 179 -37 74 -282 304 -357 335 -27 12 -41 28 -66 79 -40 84
-117 193 -150 215 -18 12 -59 19 -137 24 -282 18 -380 36 -466 87 -19 11 -45
22 -57 24 -12 2 -32 12 -44 24 -61 54 -90 63 -124 39z m1813 -2158 c-3 -8 -6
-5 -6 6 -1 11 2 17 5 13 3 -3 4 -12 1 -19z"/>
<path d="M4355 2701 c-16 -4 -53 -20 -82 -34 -52 -27 -54 -27 -218 -22 -126 3
-176 1 -212 -10 -27 -8 -67 -15 -89 -15 -26 0 -47 -6 -55 -16 -7 -8 -33 -26
-58 -39 -53 -27 -92 -66 -150 -149 -45 -65 -47 -72 -27 -95 30 -34 28 -55 -7
-70 -17 -7 -61 -32 -97 -55 -72 -46 -92 -58 -133 -81 -68 -38 -203 -189 -256
-285 -46 -84 -71 -142 -71 -165 0 -14 -20 -67 -44 -118 -24 -50 -47 -108 -51
-127 -3 -19 -10 -46 -15 -60 -60 -182 -132 -459 -212 -815 -46 -207 -118 -537
-118 -542 0 -2 528 -3 1174 -3 l1174 0 6 113 c3 61 8 229 11 372 2 143 6 269
8 280 3 11 1 25 -3 30 -4 6 -10 78 -13 160 -4 124 -10 164 -31 230 -15 47 -26
104 -26 137 0 163 -108 447 -224 592 -31 39 -186 314 -186 330 0 5 -6 22 -14
39 -20 45 -34 94 -41 148 -6 43 -4 50 49 131 58 89 80 149 55 147 -8 -1 -27
-4 -44 -8z"/>
</g>
</svg>
